<svg width="0" height="0" class="hidden">
  <defs>
    <symbol id="search" viewBox="0 0 16 16" fill="inherit" xmlns="http://www.w3.org/2000/svg">
      <path d="M11.742 10.344a6.5 6.5 0 1 0-1.397 1.398h-.001q.044.06.098.115l3.85 3.85a1 1 0 0 0 1.415-1.414l-3.85-3.85a1 1 0 0 0-.115-.1zM12 6.5a5.5 5.5 0 1 1-11 0 5.5 5.5 0 0 1 11 0"/>
    </symbol>
    <symbol id="facebook" viewBox="0 0 24 24" fill="inherit" xmlns="http://www.w3.org/2000/svg">
      <path d="M22.675 0H1.325C.593 0 0 .593 0 1.324v21.352C0 23.407.593 24 1.325 24h11.494v-9.294H9.69v-3.622h3.129V8.413c0-3.1 1.893-4.788 4.659-4.788 1.325 0 2.463.099 2.795.143v3.24l-1.918.001c-1.504 0-1.795.715-1.795 1.763v2.313h3.587l-.467 3.622h-3.12V24h6.116c.73 0 1.323-.593 1.323-1.324V1.324C24 .593 23.407 0 22.675 0z"/>
    </symbol>
    <symbol id="twitter" viewBox="0 0 24 24" fill="inherit" xmlns="http://www.w3.org/2000/svg">
      <path d="M23.643 4.937c-.835.37-1.732.62-2.675.733a4.67 4.67 0 0 0 2.048-2.578 9.3 9.3 0 0 1-2.958 1.13 4.66 4.66 0 0 0-7.938 4.25 13.229 13.229 0 0 1-9.602-4.868c-.4.69-.63 1.49-.63 2.342A4.66 4.66 0 0 0 3.96 9.824a4.647 4.647 0 0 1-2.11-.581v.06a4.66 4.66 0 0 0 3.737 4.568 4.68 4.68 0 0 1-2.104.08 4.661 4.661 0 0 0 4.352 3.234 9.348 9.348 0 0 1-5.786 1.995 9.5 9.5 0 0 0 5.146 1.507c6.179 0 9.554-5.115 9.554-9.554 0-.146-.003-.292-.01-.438a6.803 6.803 0 0 0 1.67-1.732z"/>
    </symbol>
    <symbol id="linkedin" viewBox="0 0 24 24" fill="inherit" xmlns="http://www.w3.org/2000/svg">
      <path d="M20.447 20.452h-3.554v-5.569c0-1.328-.027-3.037-1.852-3.037-1.853 0-2.136 1.445-2.136 2.939v5.667H9.351V9h3.414v1.561h.046c.477-.9 1.637-1.85 3.37-1.85 3.601 0 4.267 2.37 4.267 5.455v6.286zM5.337 7.433c-1.144 0-2.063-.926-2.063-2.065 0-1.138.92-2.063 2.063-2.063 1.14 0 2.064.925 2.064 2.063 0 1.139-.925 2.065-2.064 2.065zm1.782 13.019H3.555V9h3.564v11.452zM22.225 0H1.771C.792 0 0 .774 0 1.729v20.542C0 23.227.792 24 1.771 24h20.451C23.2 24 24 23.227 24 22.271V1.729C24 .774 23.2 0 22.222 0h.003z"/>
    </symbol>
    <symbol id="instagram" viewBox="0 0 24 24" fill="inherit" xmlns="http://www.w3.org/2000/svg">
      <path d="M12 2.163c3.204 0 3.584.012 4.85.07 3.252.148 4.771 1.691 4.919 4.919.058 1.265.069 1.645.069 4.849 0 3.205-.012 3.584-.069 4.849-.149 3.225-1.664 4.771-4.919 4.919-1.266.058-1.644.07-4.85.07-3.204 0-3.584-.012-4.849-.07-3.26-.149-4.771-1.699-4.919-4.92-.058-1.265-.07-1.644-.07-4.849 0-3.204.013-3.583.07-4.849.149-3.227 1.664-4.771 4.919-4.919 1.266-.057 1.645-.069 4.849-.069zm0-2.163c-3.259 0-3.667.014-4.947.072-4.358.2-6.78 2.618-6.98 6.98-.059 1.281-.073 1.689-.073 4.948 0 3.259.014 3.668.072 4.948.2 4.358 2.618 6.78 6.98 6.98 1.281.058 1.689.072 4.948.072 3.259 0 3.668-.014 4.948-.072 4.354-.2 6.782-2.618 6.979-6.98.059-1.28.073-1.689.073-4.948 0-3.259-.014-3.667-.072-4.947-.196-4.354-2.617-6.78-6.979-6.98-1.281-.059-1.69-.073-4.949-.073zm0 5.838c-3.403 0-6.162 2.759-6.162 6.162s2.759 6.163 6.162 6.163 6.162-2.759 6.162-6.163c0-3.403-2.759-6.162-6.162-6.162zm0 10.162c-2.209 0-4-1.79-4-4 0-2.209 1.791-4 4-4s4 1.791 4 4c0 2.21-1.791 4-4 4zm6.406-11.845c-.796 0-1.441.645-1.441 1.44s.645 1.44 1.441 1.44c.795 0 1.439-.645 1.439-1.44s-.644-1.44-1.439-1.44z"/>
    </symbol>
    <symbol id="youtube" viewBox="0 0 24 24" fill="inherit" xmlns="http://www.w3.org/2000/svg">
      <path d="M19.615 3.184c-1.904-1.9-4.088-3.183-6.615-3.183-2.526 0-4.71 1.283-6.614 3.183-1.903 1.9-3.186 4.084-3.186 6.61 0 2.527 1.283 4.71 3.186 6.614 1.904 1.9 4.088 3.183 6.614 3.183 2.527 0 4.711-1.283 6.615-3.183 1.904-1.9 3.187-4.087 3.187-6.614 0-2.526-1.283-4.71-3.187-6.61zm-2.225 7.846l-4.202-2.417c-.38-.218-.847-.218-1.226 0l-4.202 2.417c-.38.218-.615.584-.615.984v4.834c0 .4.235.766.615.984l4.202 2.417c.38.218.847.218 1.226 0l4.202-2.417c.38-.218.615-.584.615-.984v-4.834c0-.4-.235-.766-.615-.984z"/>
    </symbol>
    <symbol id="tiktok" viewBox="0 0 24 24" fill="inherit" xmlns="http://www.w3.org/2000/svg">
      <path d="M19.59 6.69a4.83 4.83 0 0 1-3.77-4.25V2h-3.45v13.67a2.89 2.89 0 0 1-5.2 1.74 2.89 2.89 0 0 1 2.31-4.64 2.93 2.93 0 0 1 .88.13V9.4a6.84 6.84 0 0 0-1-.05A6.33 6.33 0 0 0 5 20.1a6.34 6.34 0 0 0 10.86-4.43v-7a8.16 8.16 0 0 0 4.77 1.52v-3.4a4.85 4.85 0 0 1-1-.1z"/>
    </symbol>
    <symbol id="whatsapp" viewBox="0 0 24 24" fill="inherit" xmlns="http://www.w3.org/2000/svg">
      <path d="M20.1 3.1L17.9 5.2C17.3 5.8 16.6 6.9 16.3 7.7L18.6 7.1C18.8 7.1 19 7 19.1 6.9L21.9 4.1C22.5 3.5 22.1 2.6 21.2 2.8L2.7 6.2C2.3 6.3 2 6.6 2 7V17C2 18.1 2.9 19 4 19H14C14.4 19 14.7 18.7 14.8 18.3L14.2 16C14.1 15.9 14 15.8 14 15.7L13.4 18.5C13.3 19.3 14.2 19.9 15 19.4L20.9 15.6C21.7 15.1 22.3 14.4 22.4 13.6L23.9 5.1C24.1 4.2 23.2 3.6 22.3 4L20.1 3.1ZM7.3 13.7L10.6 10.4L13.6 13.4L10.3 10.1L7.3 13.7ZM8.4 7.6L7 9.3L4.6 7.9L6 6.2L8.4 7.6Z"/>
    </symbol>
    <symbol id="telegram" viewBox="0 0 24 24" fill="inherit" xmlns="http://www.w3.org/2000/svg">
      <path d="M19.36 5.45a1.5 1.5 0 0 0-1.05-.45 11.9 11.9 0 0 0-7.46 0 1.5 1.5 0 0 0-1.05.45l-.65.8a1.5 1.5 0 0 1-1.08.55H6.26a.75.75 0 0 0-.75.75v9.45a.75.75 0 0 0 .75.75h9.45a.75.75 0 0 0 .75-.75v-2.55a1.5 1.5 0 0 1 .55-1.08l.8-.65a1.5 1.5 0 0 0 .45-1.05 11.9 11.9 0 0 0 0-7.46zm-2.83 7.7a.75.75 0 0 0 0 1.06l-4.24 4.24a.75.75 0 0 1-1.06 0l-2.12-2.12a.75.75 0 0 0-1.06 0l-1.06 1.06a.75.75 0 0 1-1.06 0l-1.77-1.77a.75.75 0 0 1 0-1.06l4.24-4.24a.75.75 0 0 0 0-1.06L8.46 7.3a.75.75 0 0 1 0-1.06L9.52 5.22a.75.75 0 0 1 1.06 0l1.77 1.77a.75.75 0 0 1 0 1.06l-1.06 1.06a.75.75 0 0 0 0 1.06l2.12 2.12a.75.75 0 0 1 0 1.06l-4.24 4.24a.75.75 0 0 0-.01 1.06l1.77 1.77a.75.75 0 0 1 0 1.06l1.06 1.06a.75.75 0 0 1 0 1.06l-1.77 1.77a.75.75 0 0 1-1.06 0l-4.24-4.24a.75.75 0 0 0-1.06 0l-1.06 1.06a.75.75 0 0 1-1.06 0l-1.77-1.77a.75.75 0 0 1 0-1.06l4.24-4.24a.75.75 0 0 0 0-1.06L5.22 9.52a.75.75 0 0 1 0-1.06L7.3 7.46a.75.75 0 0 1 1.06 0l1.77 1.77a.75.75 0 0 1 0 1.06l-1.06 1.06a.75.75 0 0 0 0 1.06l2.12 2.12a.75.75 0 0 1 0 1.06z"/>
    </symbol>
    <symbol id="heart" viewBox="0 0 24 24" fill="inherit" xmlns="http://www.w3.org/2000/svg">
    <path d="M12 21.35l-1.45-1.32C5.4 15.36 2 12.28 2 8.5 2 5.42 4.42 3 7.5 3c1.74 0 3.41.81 4.5 2.09C13.09 3.81 14.76 3 16.5 3 19.58 3 22 5.42 22 8.5c0 3.78-3.4 6.86-8.55 11.54L12 21.35z" fill-rule="evenodd" clip-rule="evenodd"/>
    </symbol>
    <symbol id="cart" viewBox="0 0 24 24" fill="inherit" xmlns="http://www.w3.org/2000/svg">
    <path d="M7 18c-1.1 0-1.99.9-1.99 2S5.9 22 7 22s2-.9 2-2-.9-2-2-2zM1 2v2h2l3.6 7.59-1.35 2.45c-.16.28-.25.61-.25.96 0 1.1.9 2 2 2h12v-2H7.42c-.14 0-.25-.11-.25-.25l.03-.12L8.1 13h7.45c.75 0 1.41-.41 1.75-1.03l3.58-6.49c.08-.14.12-.31.12-.48 0-.55-.45-1-1-1H5.21l-.94-2H1zm16 16c-1.1 0-1.99.9-1.99 2s.89 2 1.99 2 2-.9 2-2-.9-2-2-2z" fill-rule="evenodd" clip-rule="evenodd"/>
    </symbol>
    <symbol id="close" viewBox="0 0 24 24" fill="inherit" xmlns="http://www.w3.org/2000/svg">
    <path d="M19 6.41L17.59 5 12 10.59 6.41 5 5 6.41 10.59 12 5 17.59 6.41 19 12 13.41 17.59 19 19 17.59 13.41 12 19 6.41z"/>
    </symbol>
    <symbol id="plus" viewBox="0 0 24 24" fill="inherit" xmlns="http://www.w3.org/2000/svg">
    <path d="M19 13H13V19H11V13H5V11H11V5H13V11H19V13Z"/>
    </symbol>
    <symbol id="minus" viewBox="0 0 24 24" fill="inherit" xmlns="http://www.w3.org/2000/svg">
    <path d="M19 13H5V11H19V13Z"/>
    </symbol>
    <symbol id="trash" viewBox="0 0 24 24" fill="inherit" xmlns="http://www.w3.org/2000/svg">
    <path d="M6 19c0 1.1.9 2 2 2h8c1.1 0 2-.9 2-2V7H6v12zM19 4h-3.5l-1-1h-5l-1 1H5v2h14V4z"/>
    </symbol>
  </defs>
</svg>